<?xml version="1.0" encoding="utf-8"?>
<!-- Generator: Adobe Illustrator 21.1.0, SVG Export Plug-In . SVG Version: 6.00 Build 0)  -->
<svg version="1.1" id="Calque_1" xmlns="http://www.w3.org/2000/svg" xmlns:xlink="http://www.w3.org/1999/xlink" x="0px" y="0px"
	 viewBox="0 0 432 432" style="enable-background:new 0 0 432 432;" xml:space="preserve">
<style type="text/css">
	.st0{fill:#A29F5C;}
	.st1{fill:#1B1B1B;}
	.st2{fill:#3E2B14;}
	.st3{fill:#603914;}
	.st4{fill:#8C633A;}
	.st5{fill:#DACD8F;}
	.st6{fill:#CDCCCC;}
	.st7{fill:#9A9999;}
	.st8{fill:#754D24;}
	.st9{fill:#808181;}
	.st10{fill:#6A6065;}
	.st11{fill:#823231;}
	.st12{fill:#537791;}
	.st13{fill:#B4B4B4;}
	.st14{fill:#C1292E;}
	.st15{fill:#0D71B9;}
	.st16{fill:#009245;}
	.st17{fill:#C69C6C;}
	.st18{fill:#4E4D4D;}
	.st19{fill:#668E86;}
	.st20{fill:#0A2C40;}
	.st21{fill:#67792D;}
	.st22{fill:#9C8C51;}
	.st23{fill:#405F64;}
	.st24{fill:#020203;}
	.st25{fill:#FFD64E;}
	.st26{fill:#ED6E13;}
	.st27{fill:#B4B2AD;}
	.st28{fill:#F4983C;}
	.st29{fill:#ED6E88;}
	.st30{fill:#E8E5DC;}
	.st31{fill:#AECD63;}
	.st32{fill:#B19A7E;}
	.st33{fill:#71C3BA;}
	.st34{fill:#A1D4D0;}
	.st35{fill:#C7DC94;}
	.st36{fill:#F2A0A5;}
	.st37{fill:#695E2B;}
	.st38{fill:#343434;}
	.st39{fill:#DE9496;}
	.st40{fill:#9EB15A;}
	.st41{fill:#9D2F64;}
	.st42{fill:#7B549C;}
	.st43{fill:#67B6A4;}
	.st44{fill:#508CB3;}
	.st45{fill:#F1BB67;}
	.st46{fill:#9D897C;}
	.st47{fill:#F5C546;}
	.st48{fill-rule:evenodd;clip-rule:evenodd;fill:#DE9496;}
	.st49{fill:#7F7264;}
	.st50{fill:#FFFFFF;}
	.st51{fill:#E8913D;}
	.st52{fill:#69B88F;}
	.st53{fill:#DACBBE;}
	.st54{fill:#E5D9D4;}
	.st55{fill:#AB827E;}
	.st56{fill:#333333;}
	.st57{fill:#E48E8C;}
	.st58{fill:#EBA380;}
	.st59{fill:#E27970;}
	.st60{fill:#404042;}
	.st61{fill:#B3B1AB;}
	.st62{fill:#FAB967;}
	.st63{fill:#DACCBF;}
	.st64{fill:#D1D1CF;}
	.st65{fill:#E5E4E0;}
	.st66{fill:#F7BDCB;}
	.st67{fill:#C7C6C6;}
	.st68{fill:#D28190;}
	.st69{fill:#9D3E49;}
	.st70{fill:#D85A73;}
	.st71{fill:#D4CBBC;}
	.st72{fill:#F1F0EC;}
	.st73{fill:#FDD69C;}
</style>
<g>
	<path class="st0" d="M319.5,141.3c-1.4-1.5-2.8-3-4.2-4.5c-3.6-3.8-7.2-7.6-10.5-11.7c-1.4-1.8-2.8-3.6-4-5.4
		c-3.3-5-5.5-10.4-6.7-16.3c-1.3-6.3,0.6-11.8,5-16.5c2.7-2.9,6.1-4.8,9.9-6.1c3.8-1.3,7.7-2.1,11.7-2.4c5.3-0.4,10.5-0.3,15.8,0.1
		c3.3,0.3,6.7,0.6,10,1c4.9,0.6,9.7,1.4,14.4,3c1.2,0.4,2.4,0.9,3.5,1.5c4.1,2.1,6.5,5.5,7.5,10c0.5,2.4,0.4,4.9,0.1,7.4
		c-0.8,6-3,11.4-6.2,16.4c-2.7,4.3-5.8,8.3-9.1,12.1c-2.6,3-5.3,6-7.9,9c-0.2,0.3-0.4,0.5-0.7,0.8c0.3,0.6,0.6,1.1,0.9,1.7
		c0.7,1.3,1.5,2.6,2.2,3.9c1.5,2.7,1.4,5.2-0.4,7.7c-0.9,1.3-1.9,2.6-2.9,3.8c-1.3,1.7-2.6,3.4-3.9,5.2c-0.4,0.5-0.6,1-0.9,1.5
		c-1.3,2.1-1.6,4.4-1.3,6.8c0.7,6.3,1.9,12.6,3,18.9c1.1,6.1,2.2,12.2,3.2,18.4c1.4,7.9,3,15.8,4.8,23.7c1.4,6.3,2.8,12.6,4.1,19
		c1,4.9,1.8,9.9,2.6,14.9c0.3,1.8,0.5,3.5,0.5,5.3c0.1,4.6-1.1,8.8-3.8,12.6c-3.4,4.9-6.9,9.8-10.7,14.4c-2.3,2.7-4.6,5.4-6.9,8.1
		c-0.8,0.9-1.7,1.7-2.7,2.6c-0.4,0.4-1,0.7-1.5,0.9c-1,0.5-2.1,0.4-3-0.3c-0.7-0.5-1.4-1-2-1.6c-1.6-1.8-3.2-3.6-4.6-5.4
		c-3.8-4.8-7.5-9.8-10.7-14.9c-2.3-3.6-4.2-7.4-5.5-11.5c-1.5-4.7-1.8-9.4-1.1-14.2c0.7-5,1.8-9.8,3-14.7c2.3-9.6,4.3-19.2,6.4-28.8
		c1.7-8,3.5-16,5.3-24c1.1-4.9,2-9.8,2.9-14.7c0.5-2.6,1-5.1,1.5-7.6c0.4-2.2,0.7-4.4,0.6-6.6c0-1.5-0.5-2.8-1.6-3.9
		c-1.4-1.5-2.8-3-4.2-4.5c-1.7-1.9-2.9-4.1-3.6-6.6c-0.5-1.9-0.4-3.7,0.5-5.5C318.6,143,319,142.2,319.5,141.3z M343.6,132
		c0.1-0.1,0.2-0.2,0.3-0.2c2.5-3,5.2-5.9,7.6-8.9c3.3-4.1,5.9-8.5,7.6-13.5c0.8-2.5,1.4-5,1.3-7.6c-0.1-2.9-1.2-5.4-3.5-7.2
		c-2.6-2-5.4-3.4-8.6-4.2c-4.4-1.2-8.9-1.7-13.5-1.8c-4.9-0.2-9.9,0.2-14.7,0.9c-2.1,0.3-4.2,0.7-6.3,1.4c-5,1.7-8.2,5-9.2,10.3
		c-0.1,0.7-0.2,1.5-0.2,2.2c0.2,2.7,0.8,5.3,1.9,7.8c1.8,4.3,4.4,8.1,7.4,11.7c3.3,4,7.1,7.6,11,11c0.1,0,0.1,0.1,0.3,0.1
		c0.2-0.3,0.4-0.6,0.6-0.8c1.2-1.9,2.4-3.7,3.7-5.6c0.5-0.8,1.2-1.5,1.9-2.1c1.9-1.5,4.3-1.6,6.3-0.4c1,0.6,1.9,1.3,2.6,2.2
		c1.1,1.3,2,2.7,3.1,4.1C343.3,131.5,343.4,131.8,343.6,132z"/>
	<path class="st1" d="M98.6,181.4c0.4-1.8,0.9-3.5,1.2-5.2c0.6-3.8,1.3-7.7,1.8-11.5c1.6-12.5,3-25.1,5.1-37.6
		c1.2-7.2,2.6-14.4,4.8-21.4c0.9-2.7,1.9-5.3,3.3-7.8c3.7-7.1,9.7-10.4,17.6-10.5c4.7-0.1,9.3,0.9,13.7,2.3c3.2,1,6.5,2,9.7,3.1
		c8.3,2.9,16.8,3.4,25.4,1.2c4.9-1.3,9.8-2.8,14.7-4.3c4.7-1.4,9.3-2.8,14.1-3.6c4.7-0.8,9.4-0.7,14,0.7c7.1,2.2,12.2,6.8,15.2,13.6
		c1.8,4.1,2.9,8.4,3.8,12.8c1.6,7.7,2.8,15.5,3.8,23.3c1.4,10.4,2.7,20.9,4,31.4c0.4,3.6,0.7,7.2,1.1,10.7c0,0.5,0.1,0.9,0.2,1.4
		c0.3,1.4,0.7,1.7,2.1,1.8c2.5,0.2,4.9-0.2,7.3-0.7c5.1-0.9,10.1-1.9,15.2-2.8c3.7-0.6,7.4-1.2,11.2-1.1c1.3,0,2.7,0.2,4,0.5
		c0.7,0.1,1.4,0.5,2,0.8c1.4,0.9,2.1,2.2,2,3.9c-0.2,2.3-0.9,4.5-2,6.5c-1,1.8-2.3,3.3-3.8,4.7c-3.9,3.5-8.4,5.9-13.2,7.7
		c-5,1.9-10.1,3.1-15.3,4.1c-6.4,1.2-12.8,2.4-19.2,3.4c-4.9,0.8-9.9,1.4-14.9,1.9c-5.9,0.6-11.8,1.2-17.7,1.6
		c-8.1,0.5-16.2,0.9-24.4,1.1c-11.9,0.4-23.8,0.1-35.7-0.3c-6.2-0.2-12.4-0.5-18.5-0.9c-4.9-0.3-9.7-0.9-14.5-1.3
		c-4.7-0.5-9.4-0.9-14.2-1.4c-9.5-1-18.8-2.5-27.7-6.1c-4.2-1.6-8.1-3.8-11.5-6.6c-4.1-3.3-6.8-7.6-8.7-12.4
		c-0.1-0.2-0.2-0.5-0.2-0.7c-0.7-3,0.7-5.4,3.7-6.2c2.2-0.6,4.5-0.3,6.7,0.1c3.6,0.7,7.2,1.5,10.8,2.2c4.7,0.9,9.4,1.2,14.1,1.5
		c2.5,0.1,5.1,0.2,7.6,0.2C97.6,181.4,98,181.4,98.6,181.4z"/>
	<path class="st1" d="M104.7,223.4c7.4,0.3,12.3,0.6,17.3,0.8c6,0.3,12,1.1,17.9,2.2c6.2,1.1,12.3,2.2,18.5,3.1
		c7.1,1,14.3,1.3,21.5,0.6c5.9-0.5,11.7-2,17.4-3.6c5.1-1.5,10.3-2.9,15.6-3.6c3.3-0.4,6.6-0.7,9.9-0.9c6.8-0.3,13.6-0.4,20.4-0.6
		c6.3-0.1,12.6,0.4,18.9,1.3c1.6,0.2,3.3,0.8,4.8,1.5c2.8,1.2,4.2,3.4,4.2,6.5c0,3-0.4,5.8-1.4,8.6c-1.7,4.7-3.2,9.4-4.3,14.3
		c-0.7,3.2-1.4,6.4-2.2,9.5c-1.4,5.9-3.5,11.5-7.2,16.4c-3.3,4.4-7.3,7.9-12.5,9.8c-2.6,1-5.4,1.4-8.2,1.6c-7,0.6-14,0.3-21-0.8
		c-2.2-0.3-4.4-0.9-6.5-1.6c-3.4-1.1-6.3-3-8.9-5.5c-3.1-3.1-5.5-6.5-7.2-10.5c-2.1-4.9-4.2-9.7-6.3-14.6c-0.9-2.1-2.3-4.1-3.9-5.7
		c-1-1-2.2-1.9-3.6-2.3c-0.8-0.3-1.7-0.5-2.6-0.4c-4.6,0.3-8.4,2.1-10.8,6.1c-1.2,1.9-2.2,3.9-3.1,5.9c-1.2,2.7-2.3,5.5-3.3,8.4
		c-1.4,4-3.2,7.7-5.2,11.4c-3.5,6.5-9,10.2-16,11.9c-4,1-8.1,1.1-12.2,0.7c-4.3-0.4-8.6-1.3-12.8-2.5c-0.9-0.3-1.8-0.6-2.6-0.9
		c-5-1.9-8.8-5.2-11.8-9.6c-4.4-6.7-7.3-14-9.2-21.7c-1-3.8-1.7-7.7-2.6-11.5c-0.6-2.6-1.6-5-2.6-7.4c-1.4-3.5-2.1-7.2-1.7-11.1
		c0.2-2.3,1.5-3.9,3.7-4.5c1.8-0.5,3.6-0.9,5.5-1C96,223.5,101.6,223.4,104.7,223.4z M222.6,234.3c-6.4-0.1-12.7,0.3-18.9,1.9
		c-1.8,0.5-3.5,1.2-5.2,2.1c-1.8,0.9-2.9,2.5-3.4,4.5c-0.7,3-0.4,5.9,0.2,8.8c1.4,6.5,3.9,12.6,6.5,18.7c1.1,2.5,2.6,4.7,4.5,6.7
		c1.3,1.3,2.7,2.3,4.6,2.6c3,0.4,5.9,0.9,8.9,1.1c5.2,0.4,10.4,0.1,15.5-0.8c3.6-0.7,6.6-2.3,9.1-5.1c3.6-4,6-8.6,7-13.9
		c0.9-4.9,1.4-9.8,0.4-14.7c-0.9-4.7-3.4-7.9-8.1-9.3c-1.3-0.4-2.7-0.7-4.1-1C234.1,234.9,228.4,234.4,222.6,234.3z M99.1,249.6
		c0.1,7,1.9,13.6,4.6,20c1,2.4,2.5,4.5,4.2,6.5c1.8,2,3.9,3.5,6.5,4.3c2.3,0.7,4.7,1.2,7.2,1.6c3.5,0.6,7,0.9,10.6,0.4
		c4.9-0.7,9-2.9,12.1-6.7c1.2-1.5,2.3-3.1,3.1-4.8c2.8-5.4,4.8-11.1,5.9-17.1c0.6-3.2,0.7-6.4-0.1-9.6c-0.8-3.1-2.6-5.1-5.6-6.2
		c-0.4-0.1-0.8-0.3-1.2-0.4c-1.5-0.4-2.9-0.8-4.4-1c-3.5-0.5-7-0.9-10.5-1.1c-5.2-0.3-10.5-0.5-15.7-0.6c-2.5-0.1-4.9,0.2-7.3,0.8
		c-5.2,1.3-8.4,4.6-9,9.9C99.2,246.9,99.2,248.2,99.1,249.6z"/>
	<g>
		<path class="st2" d="M139.1,352.4c-3.1,0.1-6.2-0.2-9.2-1c-6.1-1.6-11.5-4.4-15.9-9.2c-2.3-2.6-4.2-5.4-5.1-8.8
			c-1.1-4.3-0.3-8.2,2.2-11.8c1.6-2.4,4-3.7,6.7-4.6c3.2-1,6.4-0.7,9.5,0.8c0.7,0.3,1.3,0.7,1.9,1.2c0.4,0.3,0.8,0.7,1.1,1.2
			c0.8,1.4,0.1,2.5-1.5,2.5c-0.3,0-0.6,0-0.9-0.1c-2.2-0.3-4.2,0.4-5.9,1.8c-0.7,0.6-1.2,1.3-1.5,2.1c-0.4,1.2-0.2,2.2,0.7,3.1
			c1.8,1.7,3.8,2.2,6.2,1.6c1-0.3,2-0.7,3-1.2c2.2-1.2,4.2-2.6,5.8-4.6c1.9-2.3,3.8-4.7,5.6-7c3.4-4.2,7.3-7.7,11.9-10.5
			c2.4-1.5,5.1-2.2,7.9-2.4c3-0.2,5.5,0.9,7.8,2.7c1.6,1.2,2.8,2.8,3.6,4.6c1.9,4.3,2.5,8.8,1.6,13.5c-0.8,4.4-2.5,8.4-5.3,11.9
			c-4,5.2-9.2,8.8-15.3,11.3c-3.7,1.5-7.6,2.6-11.6,2.8C141.3,352.5,140.2,352.4,139.1,352.4z"/>
		<path class="st2" d="M213.1,352.4c3.1,0.1,6.2-0.2,9.2-1c6.1-1.6,11.5-4.4,15.9-9.2c2.3-2.6,4.2-5.4,5.1-8.8
			c1.1-4.3,0.3-8.2-2.2-11.8c-1.6-2.4-4-3.7-6.7-4.6c-3.2-1-6.4-0.7-9.5,0.8c-0.7,0.3-1.3,0.7-1.9,1.2c-0.4,0.3-0.8,0.7-1.1,1.2
			c-0.8,1.4-0.1,2.5,1.5,2.5c0.3,0,0.6,0,0.9-0.1c2.2-0.3,4.2,0.4,5.9,1.8c0.7,0.6,1.2,1.3,1.5,2.1c0.4,1.2,0.2,2.2-0.7,3.1
			c-1.8,1.7-3.8,2.2-6.2,1.6c-1-0.3-2-0.7-3-1.2c-2.2-1.2-4.2-2.6-5.8-4.6c-1.9-2.3-3.8-4.7-5.6-7c-3.4-4.2-7.3-7.7-11.9-10.5
			c-2.4-1.5-5.1-2.2-7.9-2.4c-3-0.2-5.5,0.9-7.8,2.7c-1.6,1.2-2.8,2.8-3.6,4.6c-1.9,4.3-2.5,8.8-1.6,13.5c0.8,4.4,2.5,8.4,5.3,11.9
			c4,5.2,9.2,8.8,15.3,11.3c3.7,1.5,7.6,2.6,11.6,2.8C210.9,352.5,212,352.4,213.1,352.4z"/>
	</g>
	<g>
		<path class="st1" d="M286.9,331.9c0.3-5.2,0.5-10.4,0.9-15.6c0.2-2.1,0.6-4.2,1-6.2c0.2-1.1,0.7-2.2,1.3-3.2
			c0.8-1.5,2.2-2.2,3.8-1.9c1.2,0.2,2.5,0.5,3.6,1c2,0.9,4,1.8,5.9,2.8c3.9,2.2,7.7,4.4,11.6,6.7c0.7,0.4,1.5,0.9,2.2,1.3
			c3,1.8,4.8,4.4,5.4,7.9c0.6,3.4,0.8,6.8,0.5,10.2c-0.2,1.8-0.9,3.4-2.2,4.7c-0.9,0.9-2,1.8-3,2.5c-5.6,3.9-11.4,7.4-17.7,10.2
			c-1.7,0.7-3.5,1.3-5.4,1.4c-0.8,0-1.5,0-2.3-0.1c-2-0.4-3.2-1.8-3.9-3.7c-0.6-1.8-0.9-3.6-1.1-5.5
			C287,340.3,287,336.1,286.9,331.9z"/>
		<path class="st1" d="M378,331.9c-0.3-5.2-0.5-10.4-0.9-15.6c-0.2-2.1-0.6-4.2-1-6.2c-0.2-1.1-0.7-2.2-1.3-3.2
			c-0.8-1.5-2.2-2.2-3.8-1.9c-1.2,0.2-2.5,0.5-3.6,1c-2,0.9-4,1.8-5.9,2.8c-3.9,2.2-7.7,4.4-11.6,6.7c-0.7,0.4-1.5,0.9-2.2,1.3
			c-3,1.8-4.8,4.4-5.4,7.9c-0.6,3.4-0.8,6.8-0.5,10.2c0.2,1.8,0.9,3.4,2.2,4.7c0.9,0.9,2,1.8,3,2.5c5.6,3.9,11.4,7.4,17.7,10.2
			c1.7,0.7,3.5,1.3,5.4,1.4c0.8,0,1.5,0,2.3-0.1c2-0.4,3.2-1.8,3.9-3.7c0.6-1.8,0.9-3.6,1.1-5.5C377.8,340.3,377.9,336.1,378,331.9z
			"/>
		<path class="st1" d="M339.7,329.6c0,1.6,0,3.3,0,4.9c0,0.4,0,0.8,0,1.1c-0.2,1.3-0.8,2.2-2,2.6c-1.4,0.6-2.9,0.8-4.5,0.8
			c-1.6,0-3.2-0.1-4.8-0.2c-0.4,0-0.9-0.2-1.3-0.4c-0.7-0.3-1.1-0.9-1.1-1.7c0-0.3,0-0.7,0-1c0.3-3.5-0.1-7-0.5-10.4
			c-0.1-0.8-0.2-1.5-0.3-2.3c-0.1-1.3,0.4-2.3,1.5-3c0.7-0.4,1.6-0.7,2.4-0.9c1.9-0.5,3.8-0.6,5.8-0.4c0.5,0,1.1,0.2,1.6,0.3
			c1.9,0.5,2.9,1.7,3,3.7C339.6,325,339.7,327.3,339.7,329.6C339.8,329.6,339.7,329.6,339.7,329.6z"/>
	</g>
</g>
</svg>
